<svg width="32" height="20" viewBox="0 0 32 20" fill="none" xmlns="http://www.w3.org/2000/svg">
<g clip-path="url(#clip0_11_788)">
<path d="M32 0H0V20H32V0Z" fill="#E30A17"/>
<path d="M11.3333 15.2636C14.2789 15.2636 16.6667 12.9072 16.6667 10.0005C16.6667 7.0937 14.2789 4.7373 11.3333 4.7373C8.38781 4.7373 6 7.0937 6 10.0005C6 12.9072 8.38781 15.2636 11.3333 15.2636Z" fill="white"/>
<path d="M12.6658 14.2101C15.0223 14.2101 16.9325 12.325 16.9325 9.99959C16.9325 7.67418 15.0223 5.78906 12.6658 5.78906C10.3094 5.78906 8.39917 7.67418 8.39917 9.99959C8.39917 12.325 10.3094 14.2101 12.6658 14.2101Z" fill="#E30A17"/>
<path d="M15.5544 10.0002L20.379 11.5465L17.3976 7.49707V12.5034L20.379 8.45391L15.5544 10.0002Z" fill="white"/>
</g>
<defs>
<clipPath id="clip0_11_788">
<rect width="32" height="20" fill="white"/>
</clipPath>
</defs>
</svg>
