<svg width="32" height="20" viewBox="0 0 32 20" fill="none" xmlns="http://www.w3.org/2000/svg">
<g clip-path="url(#clip0_11_446)">
<path d="M32 0.0012207H0V20.0012H32V0.0012207Z" fill="#009B3A"/>
<path d="M2.71973 10.0025L15.9997 18.3709L29.2797 10.0025L15.9997 1.63403L2.71973 10.0025Z" fill="#FEDF00"/>
<path d="M21.6001 10.001C21.6001 10.2641 21.5788 10.5167 21.5468 10.7694C21.5041 11.0746 21.4401 11.3588 21.3441 11.6431C20.6295 13.8852 18.5068 15.5167 16.0001 15.5167C12.9068 15.5167 10.4001 13.0431 10.4001 9.99043C10.4001 9.50622 10.4641 9.04306 10.5815 8.60095C10.6561 8.30622 10.7628 8.02201 10.8801 7.75885C11.7548 5.82201 13.7175 4.46411 16.0001 4.46411C19.0935 4.47464 21.6001 6.94832 21.6001 10.001Z" fill="#002776"/>
<path d="M21.547 10.7709C21.5043 11.0761 21.4403 11.3603 21.3443 11.6446C19.083 9.64456 16.0857 8.42351 12.8003 8.42351C12.043 8.42351 11.2963 8.48667 10.5817 8.61298C10.6563 8.31824 10.763 8.03403 10.8803 7.77088C11.5097 7.68667 12.1497 7.63403 12.8003 7.63403C16.1283 7.63403 19.179 8.81298 21.547 10.7709Z" fill="white"/>
<path d="M13.0131 8.28547L13.4931 8.30652V8.21179L13.1091 8.20126V8.06442L13.4184 8.07494V7.98021L13.1091 7.96968V7.86442L13.4717 7.87495V7.78021L13.0131 7.75916V8.28547Z" fill="#009B3A"/>
<path d="M13.6854 8.31779L13.7814 8.32832L13.8134 7.97042L13.8881 8.33884L13.9734 8.34937L14.1121 8.002L14.0801 8.3599L14.1761 8.37042L14.2188 7.84411L14.0801 7.83358L13.9414 8.18095L13.8668 7.81253L13.7388 7.802L13.6854 8.31779Z" fill="#009B3A"/>
<path d="M14.7954 8.44213L15.1901 8.50529L15.2007 8.42108L14.8914 8.36845L14.9127 8.25266L15.1581 8.29477L15.1687 8.21055L14.9234 8.16845L14.9341 8.08424L15.2327 8.13687L15.2434 8.05266L14.8594 7.9895L14.7954 8.44213Z" fill="#009B3A"/>
<path d="M18.0953 9.12505L18.0656 9.19263L18.2514 9.27235L18.2812 9.20477L18.0953 9.12505Z" fill="#009B3A"/>
<path d="M18.2142 9.17785L18.1079 9.41919L18.1764 9.44857L18.2827 9.20723L18.2142 9.17785Z" fill="#009B3A"/>
<path d="M19.7328 10.0859C19.7008 10.128 19.7328 10.1806 19.7968 10.2227C19.8608 10.2648 19.9035 10.2648 19.9248 10.2333C19.9888 10.1385 19.6475 10.0122 19.7541 9.8543C19.8395 9.71746 19.9995 9.82272 20.0528 9.86483C20.1381 9.90693 20.1808 10.0017 20.1381 10.0964C20.1381 10.0964 20.1381 10.1069 20.1275 10.1069L20.0315 10.0438C20.0635 10.0017 20.0315 9.94904 19.9781 9.91746C19.9248 9.88588 19.8821 9.87536 19.8608 9.91746C19.8075 9.99115 20.1381 10.128 20.0421 10.2859C19.9675 10.4017 19.8395 10.349 19.7541 10.2964C19.6688 10.2438 19.5728 10.1385 19.6368 10.0333L19.7328 10.0859Z" fill="#009B3A"/>
<path d="M18.9647 9.83157L19.3807 10.0631L19.4341 9.97893L19.0927 9.78946L19.1567 9.67367L19.4234 9.82104L19.4661 9.73683L19.1994 9.58946L19.2527 9.49472L19.5727 9.67367L19.6261 9.58946L19.2314 9.36841L18.9647 9.83157Z" fill="#009B3A"/>
<path d="M20.3095 10.4648C20.2775 10.5069 20.3095 10.5596 20.3629 10.6017C20.4162 10.6438 20.4695 10.6438 20.4909 10.6227C20.5549 10.5385 20.2242 10.3912 20.3415 10.2333C20.4375 10.1069 20.5869 10.2122 20.6402 10.2543C20.7255 10.2964 20.7575 10.4017 20.7149 10.4859C20.7149 10.4859 20.7149 10.4964 20.7042 10.4964L20.6082 10.4333C20.6402 10.3912 20.6082 10.3385 20.5655 10.3069C20.5229 10.2754 20.4802 10.2543 20.4482 10.2964C20.3949 10.3701 20.7149 10.528 20.6082 10.6754C20.5229 10.7912 20.4055 10.728 20.3202 10.6754C20.2349 10.6227 20.1495 10.5069 20.2242 10.4017L20.3095 10.4648Z" fill="#009B3A"/>
<path d="M11.4347 8.09503C11.4027 7.96872 11.2747 7.8845 11.1467 7.91608C11.0187 7.94766 10.9334 8.07398 10.9654 8.20029C10.9974 8.31608 11.104 8.40029 11.232 8.37924C11.36 8.35819 11.456 8.23187 11.4347 8.09503ZM11.1894 7.95819C11.3707 7.95819 11.3707 8.27398 11.1894 8.27398C11.008 8.27398 11.008 7.95819 11.1894 7.95819Z" fill="#009B3A"/>
<path d="M21.2585 10.9794C21.3118 10.8531 21.2478 10.7162 21.1198 10.6741C20.9918 10.6215 20.8531 10.6847 20.8105 10.811C20.7678 10.9268 20.8105 11.0531 20.9278 11.1057C21.0451 11.1583 21.1945 11.1057 21.2585 10.9794ZM21.1305 10.7373C21.2798 10.8426 21.0985 11.1057 20.9491 11.0004C20.7998 10.8952 20.9811 10.6426 21.1305 10.7373Z" fill="#009B3A"/>
<path d="M12.7676 7.86549C12.7249 7.81286 12.6609 7.77075 12.5862 7.77075H12.3196L12.3302 8.29707C12.3302 8.29707 12.5436 8.29707 12.5969 8.29707C12.6609 8.28654 12.7249 8.25496 12.7676 8.20233C12.7996 8.1497 12.8102 8.09707 12.8102 8.03391C12.8209 7.98128 12.7996 7.91812 12.7676 7.86549ZM12.5542 8.20233H12.4262V7.87602H12.5862C12.6502 7.87602 12.6929 7.91812 12.7142 7.97075C12.7142 8.00233 12.7249 8.03391 12.7249 8.06549C12.7249 8.10759 12.7036 8.13917 12.6716 8.17075C12.6396 8.1918 12.5969 8.20233 12.5542 8.20233Z" fill="#009B3A"/>
<path d="M12.0424 8.09555C12.0744 8.06397 12.1064 8.02186 12.1171 7.97976C12.1278 7.88502 12.0638 7.80081 11.9784 7.79028H11.9678C11.9144 7.79028 11.6371 7.81134 11.6371 7.81134L11.6691 8.33765L11.7651 8.32713L11.7544 8.13765L11.9251 8.12712H11.9678C11.9998 8.16923 12.0104 8.22186 12.0318 8.26397C12.0318 8.28502 12.0318 8.30607 12.0318 8.32713H12.1278C12.1278 8.27449 12.1171 8.22186 12.1064 8.17976C12.0744 8.14818 12.0638 8.1166 12.0424 8.09555ZM11.9784 8.01134C11.9571 8.02186 11.9251 8.03239 11.9038 8.03239L11.7331 8.04291L11.7224 7.90607C11.7438 7.90607 11.8824 7.89555 11.8824 7.89555H11.9358C11.9464 7.89555 11.9678 7.90607 11.9784 7.9166C11.9891 7.92712 11.9998 7.94818 11.9998 7.9587C12.0104 7.97976 11.9998 8.00081 11.9784 8.01134Z" fill="#009B3A"/>
<path d="M17.6746 8.89567C17.6746 8.76935 17.5786 8.65356 17.4399 8.65356C17.3119 8.65356 17.1946 8.7483 17.1946 8.88514C17.1946 9.01146 17.2799 9.1062 17.3972 9.12725C17.5359 9.12725 17.6639 9.03251 17.6746 8.89567ZM17.4826 8.7062C17.6532 8.7483 17.5786 9.06409 17.3972 9.01146C17.2159 8.95883 17.3012 8.65356 17.4826 8.7062Z" fill="#009B3A"/>
<path d="M16.9066 8.68537C16.9493 8.66432 16.992 8.64327 17.0133 8.60116C17.056 8.51695 17.024 8.42221 16.9386 8.38011H16.928C16.8746 8.35906 16.608 8.2959 16.608 8.2959L16.4586 8.80116L16.5546 8.82221L16.608 8.63274L16.7786 8.67485L16.8213 8.68537C16.832 8.738 16.832 8.78011 16.832 8.83274C16.832 8.85379 16.8213 8.87485 16.8213 8.88537L16.9173 8.91695C16.9386 8.86432 16.9493 8.82221 16.9386 8.76958C16.928 8.74853 16.9173 8.71695 16.9066 8.68537ZM16.8746 8.59063C16.8426 8.59063 16.8213 8.59063 16.7893 8.58011L16.6293 8.538L16.6613 8.41169C16.6826 8.42221 16.8106 8.45379 16.8106 8.45379L16.864 8.46432C16.8746 8.47485 16.8853 8.48537 16.896 8.4959C16.9066 8.50642 16.9066 8.52748 16.9066 8.54853C16.9173 8.56958 16.896 8.58011 16.8746 8.59063Z" fill="#009B3A"/>
<path d="M18.8481 9.46524C18.8908 9.45472 18.9228 9.42314 18.9548 9.39156C18.9975 9.31787 18.9761 9.21261 18.9015 9.15998C18.8481 9.13893 18.5921 9.04419 18.5921 9.04419L18.4001 9.53893L18.4961 9.57051L18.5601 9.38103L18.7201 9.44419L18.7628 9.45472C18.7735 9.50735 18.7735 9.55998 18.7628 9.60208C18.7521 9.62314 18.7521 9.63366 18.7415 9.65472L18.8268 9.69682C18.8481 9.65472 18.8588 9.60208 18.8695 9.54945C18.8588 9.5284 18.8588 9.49682 18.8481 9.46524ZM18.8268 9.35998C18.7948 9.35998 18.7735 9.35998 18.7415 9.33893L18.5921 9.28629L18.6348 9.15998C18.6561 9.17051 18.7841 9.21261 18.7841 9.21261L18.8375 9.23366C18.8481 9.24419 18.8588 9.25472 18.8695 9.26524C18.8801 9.27577 18.8801 9.29682 18.8695 9.31787C18.8588 9.33893 18.8481 9.35998 18.8268 9.35998Z" fill="#009B3A"/>
<path d="M16.2559 8.51701C16.2986 8.49596 16.3413 8.46438 16.3626 8.4328C16.4053 8.34859 16.3626 8.25385 16.2879 8.21175H16.2773C16.2239 8.20122 15.9573 8.13806 15.9573 8.13806L15.8186 8.64332L15.9146 8.66438L15.9573 8.4749L16.1279 8.51701L16.1706 8.52753L16.2559 8.51701ZM16.2239 8.41175C16.1919 8.41175 16.1706 8.41175 16.1386 8.40122L15.9786 8.35911L16.0106 8.22227C16.0319 8.2328 16.1599 8.25385 16.1599 8.25385L16.2133 8.26438C16.2239 8.2749 16.2453 8.28543 16.2453 8.29596C16.2559 8.30648 16.2559 8.32754 16.2559 8.34859C16.2559 8.39069 16.2346 8.41175 16.2239 8.41175Z" fill="#009B3A"/>
<path d="M18.2286 9.1789C18.218 9.16837 18.1966 9.16837 18.186 9.16837C18.154 9.24206 18.0686 9.28416 17.994 9.25258C17.9833 9.25258 17.9833 9.25258 17.9726 9.24206C17.8233 9.1368 18.0046 8.87364 18.154 8.9789C18.186 8.99995 18.2073 9.03153 18.2073 9.07364C18.2286 9.08416 18.25 9.08416 18.2713 9.09469L18.3033 9.10522C18.314 9.01048 18.2606 8.91574 18.1753 8.87364C18.0473 8.78943 17.8873 8.83153 17.802 8.94732C17.7166 9.07364 17.7593 9.23153 17.8766 9.31574C18.0046 9.39995 18.1646 9.35785 18.25 9.24206C18.25 9.23153 18.2606 9.23153 18.2606 9.22101L18.2713 9.19995L18.2286 9.1789Z" fill="#009B3A"/>
<path d="M17.9515 8.21228L17.8235 8.29649L17.8768 8.43333L17.7595 8.34912L17.6422 8.43333L17.6848 8.29649L17.5675 8.21228H17.7062L17.7595 8.07544L17.8022 8.21228H17.9515Z" fill="white"/>
<path d="M11.2006 8.93917L11.3392 9.03391L11.2859 9.20233L11.4246 9.09707L11.5739 9.20233L11.5206 9.03391L11.6592 8.93917H11.4886L11.4246 8.77075L11.3712 8.93917H11.2006Z" fill="white"/>
<path d="M17.376 9.6756L17.472 9.74929L17.44 9.85455L17.536 9.79139L17.632 9.85455L17.5893 9.74929L17.696 9.6756H17.568L17.536 9.55981L17.4933 9.6756H17.376Z" fill="white"/>
<path d="M12.374 10.9706L12.438 11.0127L12.406 11.0864L12.47 11.0443L12.5234 11.0864L12.502 11.0127L12.566 10.9706H12.4914L12.47 10.9075L12.4487 10.9706H12.374Z" fill="white"/>
<path d="M11.9246 11.095L11.8712 11.2529H11.7006L11.8392 11.3581L11.7859 11.5265L11.9246 11.4213L12.0632 11.5265L12.0099 11.3581L12.1486 11.2529H11.9779L11.9246 11.095Z" fill="white"/>
<path d="M11.0514 11.7709L11.1687 11.8551L11.1261 11.9919L11.2434 11.9077L11.3607 11.9919L11.3074 11.8551L11.4247 11.7709H11.2861L11.2434 11.634L11.1901 11.7709H11.0514Z" fill="white"/>
<path d="M13.6854 10.1588L13.8028 10.243L13.7494 10.3798L13.8668 10.2956L13.9841 10.3798L13.9414 10.243L14.0588 10.1588H13.9094L13.8668 10.0325L13.8241 10.1588H13.6854Z" fill="white"/>
<path d="M12.9285 11.8111L13.0351 11.8848L12.9925 12.0111L13.0991 11.9374L13.2058 12.0111L13.1631 11.8848L13.2698 11.8111H13.1418L13.0991 11.6848L13.0671 11.8111H12.9285Z" fill="white"/>
<path d="M12.7682 12.3907L12.8749 12.4644L12.8322 12.5696L12.9282 12.5065L13.0242 12.5696L12.9922 12.4644L13.0882 12.3907H12.9709L12.9282 12.2749L12.8962 12.3907H12.7682Z" fill="white"/>
<path d="M13.5251 12.8337L13.6745 12.9284L13.6105 13.0969L13.7598 12.9916L13.8985 13.0969L13.8451 12.9284L13.9838 12.8337H13.8131L13.7598 12.6653L13.7065 12.8337H13.5251Z" fill="white"/>
<path d="M15.8075 10.8431L15.9248 10.9274L15.8822 11.0642L15.9995 10.98L16.1168 11.0642L16.0742 10.9274L16.1915 10.8431H16.0422L15.9995 10.7063L15.9568 10.8431H15.8075Z" fill="white"/>
<path d="M15.2751 11.3475L15.3711 11.4106L15.3391 11.5264L15.4351 11.4527L15.5311 11.5264L15.4991 11.4106L15.5951 11.3475H15.4671L15.4351 11.2317L15.3925 11.3475H15.2751Z" fill="white"/>
<path d="M15.616 11.7272L15.68 11.7694L15.6586 11.8325L15.712 11.7904L15.776 11.8325L15.7546 11.7694L15.808 11.7272H15.7333L15.712 11.6536L15.6906 11.7272H15.616Z" fill="white"/>
<path d="M16.4586 11.3275L16.576 11.4117L16.5333 11.5486L16.6506 11.4644L16.768 11.5486L16.7253 11.4117L16.8426 11.3275H16.6933L16.6506 11.1907L16.5973 11.3275H16.4586Z" fill="white"/>
<path d="M15.7762 12.4328L15.9149 12.5381L15.8616 12.696L16.0002 12.6012L16.1389 12.696L16.0856 12.5381L16.2242 12.4328H16.0536L16.0002 12.2749L15.9469 12.4328H15.7762Z" fill="white"/>
<path d="M15.9254 14.2959L15.9681 14.3275L15.9467 14.3801L16.0001 14.3485L16.0427 14.3801L16.0214 14.3275L16.0641 14.2959H16.0107L16.0001 14.2433L15.9787 14.2959H15.9254Z" fill="white"/>
<path d="M17.0776 13.0545L17.1736 13.1177L17.131 13.2335L17.2376 13.1703L17.3336 13.2335L17.291 13.1177L17.387 13.0545H17.2696L17.2376 12.9387L17.195 13.0545H17.0776Z" fill="white"/>
<path d="M17.4829 13.6539L17.6002 13.7487L17.5576 13.8855L17.6749 13.8013L17.7922 13.8855L17.7496 13.7487L17.8669 13.6539H17.7176L17.6749 13.5171L17.6322 13.6539H17.4829Z" fill="white"/>
<path d="M18.2183 13.2427L18.3143 13.1795H18.197L18.1543 13.0637L18.1223 13.1795H18.005L18.101 13.2427L18.0583 13.3585L18.1543 13.2953L18.2503 13.3585L18.2183 13.2427Z" fill="white"/>
<path d="M18.624 12.9893L18.72 13.063L18.688 13.1788L18.784 13.1051L18.88 13.1788L18.8374 13.063L18.944 12.9893H18.816L18.784 12.884L18.7414 12.9893H18.624Z" fill="white"/>
<path d="M18.6028 13.517L18.7201 13.6012L18.6775 13.738L18.7948 13.6538L18.9121 13.738L18.8694 13.6012L18.9868 13.517H18.8375L18.7948 13.3801L18.7521 13.517H18.6028Z" fill="white"/>
<path d="M18.6562 14.0955L18.7523 14.1587L18.7096 14.2745L18.8056 14.2113L18.9123 14.2745L18.8696 14.1587L18.9656 14.0955H18.8483L18.8056 13.9797L18.7736 14.0955H18.6562Z" fill="white"/>
<path d="M19.2107 13.0955L19.3067 13.1587L19.264 13.2745L19.3707 13.2008L19.4667 13.2745L19.424 13.1587L19.52 13.0955H19.4027L19.3707 12.9797L19.328 13.0955H19.2107Z" fill="white"/>
<path d="M19.626 12.8127L19.7433 12.8969L19.69 13.0337L19.818 12.9495L19.9353 13.0337L19.882 12.8969L20.01 12.8127H19.8606L19.818 12.6653L19.7646 12.8127L19.626 12.8021" fill="white"/>
<path d="M19.9567 12.3802L20.074 12.4645L20.0313 12.6013L20.1487 12.5171L20.266 12.6013L20.2233 12.4645L20.3407 12.3802H20.1913L20.1487 12.2434L20.106 12.3802H19.9567Z" fill="white"/>
<path d="M19.6906 11.865L19.8399 11.9702L19.7759 12.1281L19.9252 12.0228L20.0639 12.1281L20.0106 11.9702L20.1492 11.865H19.9786L19.9252 11.6965L19.8719 11.865H19.6906Z" fill="white"/>
<path d="M20.5433 11.949L20.65 12.0122L20.6073 12.128L20.7033 12.0648L20.7993 12.128L20.7673 12.0122L20.8633 11.949H20.746L20.7033 11.8333L20.6713 11.949H20.5433Z" fill="white"/>
</g>
<defs>
<clipPath id="clip0_11_446">
<rect width="32" height="20" fill="white" transform="translate(0 0.0012207)"/>
</clipPath>
</defs>
</svg>
