<svg width="32" height="20" viewBox="0 0 32 20" fill="none" xmlns="http://www.w3.org/2000/svg">
<g clip-path="url(#clip0_11_925)">
<path d="M32.1016 0H0.101562V20H32.1016V0Z" fill="#0038A8"/>
<path d="M32.1016 10H0.101562V20H32.1016V10Z" fill="#CE1126"/>
<path d="M13.9576 10L0.101562 20V0" fill="white"/>
<path d="M5.07858 11.5798C5.96223 11.5798 6.67858 10.8729 6.67858 10.0008C6.67858 9.12879 5.96223 8.42188 5.07858 8.42188C4.19492 8.42188 3.47858 9.12879 3.47858 10.0008C3.47858 10.8729 4.19492 11.5798 5.07858 11.5798Z" fill="#FCD116"/>
<path d="M1.70038 10.0002L1.90838 10.2054L5.07851 10.0002L1.90838 9.79492L1.70038 10.0002Z" fill="#FCD116"/>
<path d="M2.05719 10.3926L2.22679 10.56L5.08012 10L2.05719 10.3926Z" fill="#FCD116"/>
<path d="M2.05719 9.60877L2.22679 9.44141L5.08012 10.0014L2.05719 9.60877Z" fill="#FCD116"/>
<path d="M2.69025 7.64453V7.934L5.07958 10.0014L2.98145 7.64453H2.69025Z" fill="#FCD116"/>
<path d="M2.66205 8.16797V8.40481L5.08018 9.99955L2.66205 8.16797Z" fill="#FCD116"/>
<path d="M3.22455 7.61328H3.46455L5.08055 9.9996L3.22455 7.61328Z" fill="#FCD116"/>
<path d="M5.0797 6.66602L4.8717 6.87128L5.0797 9.9997L5.2877 6.87128L5.0797 6.66602Z" fill="#FCD116"/>
<path d="M4.68046 7.01758L4.51086 7.18495L5.07833 9.99968L4.68046 7.01758Z" fill="#FCD116"/>
<path d="M5.47727 7.01758L5.64794 7.18495L5.07941 9.99968L5.47727 7.01758Z" fill="#FCD116"/>
<path d="M7.46767 7.64453H7.17327L5.07941 10.0014L7.46767 7.934V7.64453Z" fill="#FCD116"/>
<path d="M6.93434 7.61328H6.69541L5.07941 9.9996L6.93434 7.61328Z" fill="#FCD116"/>
<path d="M7.49754 8.16797V8.40481L5.07941 9.99955L7.49754 8.16797Z" fill="#FCD116"/>
<path d="M8.45647 9.99994L8.24847 9.79468L5.07941 9.99994L8.24954 10.2052L8.45647 9.99994Z" fill="#FCD116"/>
<path d="M8.10127 9.60877L7.93167 9.44141L5.07941 10.0014L8.10127 9.60877Z" fill="#FCD116"/>
<path d="M8.10127 10.3926L7.93167 10.56L5.07941 10L8.10127 10.3926Z" fill="#FCD116"/>
<path d="M7.46767 12.3568V12.0674L5.07941 10L7.17327 12.3568H7.46767Z" fill="#FCD116"/>
<path d="M7.49754 11.8316V11.5947L5.07941 10L7.49754 11.8316Z" fill="#FCD116"/>
<path d="M6.93434 12.3863H6.69541L5.07941 10L6.93434 12.3863Z" fill="#FCD116"/>
<path d="M5.0797 13.3337L5.2877 13.1284L5.0797 10L4.8717 13.1284L5.0797 13.3337Z" fill="#FCD116"/>
<path d="M5.47727 12.9821L5.64794 12.8147L5.07941 10L5.47727 12.9821Z" fill="#FCD116"/>
<path d="M4.68046 12.9821L4.51086 12.8147L5.07833 10L4.68046 12.9821Z" fill="#FCD116"/>
<path d="M2.69025 12.3568H2.98145L5.07958 10L2.69025 12.0674V12.3568Z" fill="#FCD116"/>
<path d="M3.22455 12.3863H3.46455L5.08055 10L3.22455 12.3863Z" fill="#FCD116"/>
<path d="M2.66205 11.8316V11.5947L5.08018 10L2.66205 11.8316Z" fill="#FCD116"/>
<path d="M0.476562 4.41476L1.10803 4.49371L1.2531 5.10424L1.52296 4.53581L2.15763 4.5895L1.69363 4.15897L1.94003 3.58002L1.38323 3.88318L0.901096 3.47266L1.02056 4.0895L0.476562 4.41476Z" fill="#FCD116"/>
<path d="M0.476562 15.5853L1.02056 15.9106L0.901096 16.5274L1.38323 16.1169L1.94003 16.42L1.69363 15.8411L2.15763 15.4106L1.52296 15.4642L1.2531 14.8948L1.10803 15.5074L0.476562 15.5853Z" fill="#FCD116"/>
<path d="M10.7487 9.48391L11.1125 9.9997L10.7487 10.5155L11.3578 10.3334L11.7418 10.8334L11.7557 10.206L12.3562 9.9997L11.7557 9.79338L11.7418 9.16602L11.3578 9.66602L10.7487 9.48391Z" fill="#FCD116"/>
</g>
<defs>
<clipPath id="clip0_11_925">
<rect width="32" height="20" fill="white" transform="translate(0.101562)"/>
</clipPath>
</defs>
</svg>
